<?xml version="1.0" encoding="UTF-8"?>
<svg id="Layer_3" data-name="Layer 3" xmlns="http://www.w3.org/2000/svg" viewBox="0 0 171.4 32.02">
  <defs>
    <style>
      .cls-1 {
        fill: #4d91ff;
      }

      .cls-1, .cls-2, .cls-3, .cls-4, .cls-5, .cls-6, .cls-7, .cls-8, .cls-9 {
        stroke-width: 0px;
      }

      .cls-2 {
        fill: #4db5ff;
      }

      .cls-3 {
        fill: #6443de;
      }

      .cls-4 {
        fill: #db4dff;
      }

      .cls-5 {
        fill: #be47ed;
      }

      .cls-6 {
        fill: #a64dff;
      }

      .cls-7 {
        fill: #ed4dff;
      }

      .cls-8 {
        fill: #ff4dde;
      }

      .cls-9 {
        fill: #0cf;
      }
    </style>
  </defs>
  <path class="cls-9" d="m0,14.22C0,6.45,5.03,0,11.74,0c3.08,0,6.52,1.03,8.34,3.94.4.6.69,1.42.69,2.22,0,1.19-.76,2.51-2.68,2.51-1.29,0-2.15-1.03-2.38-1.89-.36-1.46-1.89-2.41-3.97-2.41-4.33,0-6.75,5.09-6.75,9.69,0,3.9,1.82,6.42,5.06,6.42,1.65,0,3.31-.46,4.23-2.02.66-1.09,1.36-1.69,2.41-1.69,1.72,0,2.55,1.29,2.55,2.48,0,.63-.3,1.26-.56,1.62-1.55,2.18-4.4,4.04-8.77,4.04C3.51,24.91,0,20.54,0,14.22Z"/>
  <path class="cls-2" d="m21.08,17.33c0-5.69,3.97-9.46,8.7-9.46,4.43,0,7.21,3.28,7.21,7.48,0,5.82-3.87,9.53-8.63,9.53-4.37,0-7.28-3.41-7.28-7.54Zm11.21-1.89c0-1.65-.73-3.57-2.78-3.57s-3.74,1.95-3.74,5.42c0,1.75.86,3.44,2.78,3.44,2.08,0,3.74-2.05,3.74-5.29Z"/>
  <path class="cls-1" d="m57.67,20.15c0-2.61,1.16-4.04,1.16-6.35,0-1.16-.66-1.99-1.72-1.99-1.42,0-2.28,1.32-2.75,3.9l-.66,3.84c-.1.63-.2,1.79-.26,2.38-.17,1.52-1.36,2.65-2.78,2.65s-2.42-1.16-2.32-2.65c.03-.66.43-1.75.53-2.38l.89-5.13c.26-1.62-.36-2.61-1.65-2.61-1.52,0-2.35,1.32-2.81,3.9l-.66,3.84c-.1.63-.2,1.79-.26,2.38-.17,1.52-1.36,2.65-2.78,2.65s-2.42-1.16-2.32-2.65c.03-.66.43-1.75.53-2.38l.96-5.56c.17-.86.13-1.26-.1-1.26-.1,0-.23.07-.6.07-1.22,0-1.95-.93-1.95-1.98,0-1.39,1.32-2.45,3.28-2.45,1.65,0,2.78.89,3.27,2.28.96-1.65,2.58-2.78,4.63-2.78s3.61,1.26,4.4,2.84c.96-1.69,2.65-2.84,4.76-2.84,3.41,0,5.23,2.68,5.23,5.52,0,2.55-1.39,4.8-1.39,6.55,0,.2.13.26.2.26.2,0,.36-.07.6-.07,1.16,0,1.95.89,1.95,1.95,0,1.36-1.26,2.48-3.21,2.48-2.38,0-4.17-1.75-4.17-4.43Z"/>
  <path class="cls-3" d="m85.2,20.15c0-2.61,1.16-4.04,1.16-6.35,0-1.16-.66-1.99-1.72-1.99-1.42,0-2.28,1.32-2.75,3.9l-.66,3.84c-.1.63-.2,1.79-.26,2.38-.17,1.52-1.36,2.65-2.78,2.65s-2.42-1.16-2.32-2.65c.03-.66.43-1.75.53-2.38l.89-5.13c.26-1.62-.36-2.61-1.65-2.61-1.52,0-2.35,1.32-2.81,3.9l-.66,3.84c-.1.63-.2,1.79-.26,2.38-.17,1.52-1.36,2.65-2.78,2.65s-2.41-1.16-2.32-2.65c.03-.66.43-1.75.53-2.38l.96-5.56c.17-.86.13-1.26-.1-1.26-.1,0-.23.07-.6.07-1.22,0-1.95-.93-1.95-1.98,0-1.39,1.32-2.45,3.27-2.45,1.65,0,2.78.89,3.27,2.28.96-1.65,2.58-2.78,4.63-2.78s3.61,1.26,4.4,2.84c.96-1.69,2.65-2.84,4.76-2.84,3.41,0,5.23,2.68,5.23,5.52,0,2.55-1.39,4.8-1.39,6.55,0,.2.13.26.2.26.2,0,.36-.07.6-.07,1.16,0,1.95.89,1.95,1.95,0,1.36-1.26,2.48-3.21,2.48-2.38,0-4.17-1.75-4.17-4.43Z"/>
  <path class="cls-6" d="m104.82,22.56c-1.09,1.46-2.98,2.32-4.9,2.32-3.61,0-5.49-2.68-5.49-5.52,0-2.55,1.29-4.6,1.29-6.35,0-.2-.1-.26-.23-.26-.2,0-.36.07-.6.07-1.16,0-1.95-.89-1.95-1.95,0-1.36,1.26-2.48,3.21-2.48,2.38,0,4.17,1.75,4.17,4.43s-1.03,3.84-1.03,6.15c0,1.16.83,1.99,1.89,1.99,1.59,0,2.45-1.12,2.91-3.71l.66-3.84c.1-.63.2-1.79.26-2.38.17-1.52,1.36-2.65,2.78-2.65s2.42,1.16,2.32,2.65c-.03.66-.43,1.75-.53,2.38l-.96,5.56c-.17.86-.13,1.26.1,1.26.1,0,.23-.07.6-.07,1.22,0,1.95.93,1.95,1.98,0,1.39-1.32,2.45-3.28,2.45-1.52,0-2.61-.79-3.18-2.02Z"/>
  <path class="cls-5" d="m122.99,20.15c0-2.61,1.16-4.04,1.16-6.35,0-1.16-.83-1.99-1.89-1.99-1.59,0-2.51,1.32-2.98,3.9l-.66,3.84c-.1.63-.2,1.79-.26,2.38-.17,1.52-1.36,2.65-2.78,2.65s-2.41-1.16-2.32-2.65c.03-.66.43-1.75.53-2.38l.96-5.56c.17-.86.13-1.26-.1-1.26-.1,0-.23.07-.6.07-1.22,0-1.95-.93-1.95-1.98,0-1.39,1.32-2.45,3.27-2.45,1.65,0,2.78.93,3.31,2.32.99-1.69,2.78-2.81,4.83-2.81,3.61,0,5.49,2.68,5.49,5.52,0,2.55-1.39,4.8-1.39,6.55,0,.2.13.26.2.26.2,0,.36-.07.6-.07,1.16,0,1.95.89,1.95,1.95,0,1.36-1.26,2.48-3.21,2.48-2.38,0-4.17-1.75-4.17-4.43Z"/>
  <path class="cls-4" d="m132.58,20.15c0-1.09.2-2.12.56-3.51l.73-2.68c.3-1.06.26-1.72-.03-1.72-.2,0-.36.07-.6.07-1.16,0-1.95-.89-1.95-1.95,0-1.36,1.26-2.48,3.21-2.48s3.34,1.06,3.9,2.88c.36,1.22.26,2.61-.2,4.57l-.46,1.95c-.4,1.65-.53,2.22-.53,2.68,0,.2.13.26.2.26.2,0,.36-.07.6-.07,1.16,0,1.95.89,1.95,1.95,0,1.36-1.26,2.48-3.21,2.48-2.38,0-4.17-1.75-4.17-4.43Zm2.22-17.07c0-1.49,1.26-2.68,2.78-2.68s2.81,1.19,2.81,2.68-1.26,2.71-2.81,2.71-2.78-1.19-2.78-2.71Z"/>
  <path class="cls-7" d="m136.29,29.31c0-1.32.99-2.42,2.35-2.42,1.09,0,1.39.6,1.98.6.3,0,.69-.17.83-.89l2.38-14.09c-.46.03-.99.1-1.26.1-1.12,0-1.92-.89-1.85-1.98.1-1.12,1.09-2.02,2.22-2.02.33,0,.99.1,1.52.17l.5-3.01c.56-3.41,2.61-5.52,5.95-5.52,2.32,0,3.71.93,4.33,1.95.26.43.4.86.4,1.26,0,1.29-1.03,2.38-2.35,2.38-.63,0-1.06-.26-1.39-.56-.4-.33-.69-.69-1.22-.69-.56,0-1.06.5-1.19,1.26l-.5,2.94h.89c.46,0,1.39-.17,1.82-.17,1.12,0,1.89.89,1.79,2.02-.07,1.09-1.03,1.98-2.15,1.98-.43,0-1.29-.13-1.75-.13h-1.22l-2.48,14.72c-.46,2.65-2.55,4.8-5.76,4.8-2.58,0-3.84-1.19-3.84-2.68Z"/>
  <path class="cls-8" d="m154.66,29.14c-.26-.46-.46-.96-.46-1.52,0-1.46.96-2.41,2.25-2.41,1.19,0,1.92.76,2.18,1.52.33.93,1.36,1.39,2.28,1.39,1.82,0,2.91-1.29,3.37-3.94l.1-.56c-.86.56-1.92.86-3.11.86-3.61,0-5.49-2.68-5.49-5.52,0-2.55,1.22-4.2,1.22-5.95,0-.2-.1-.26-.23-.26-.2,0-.36.07-.6.07-1.16,0-1.95-.89-1.95-1.95,0-1.36,1.26-2.48,3.21-2.48,2.38,0,4.17,1.75,4.17,4.43s-.96,3.44-.96,5.76c0,1.16.83,1.98,1.89,1.98,1.59,0,2.38-.89,2.84-3.47l.66-3.67c.1-.63.2-1.79.26-2.38.17-1.52,1.36-2.65,2.78-2.65s2.42,1.16,2.32,2.65c-.03.66-.43,1.75-.53,2.38l-1.85,10.98c-.69,4.17-2.81,7.58-8.1,7.64-2.32.03-5.09-.86-6.25-2.88Z"/>
</svg>